<mxfile host="app.diagrams.net" agent="Mozilla/5.0 (Windows NT 10.0; Win64; x64) AppleWebKit/537.36 (KHTML, like Gecko) Chrome/127.0.0.0 Safari/537.36" version="24.7.6">
  <diagram name="Page-1" id="lJXaCw3PPu5b4OgWsfz6">
    <mxGraphModel dx="2261" dy="780" grid="1" gridSize="10" guides="1" tooltips="1" connect="1" arrows="1" fold="1" page="1" pageScale="1" pageWidth="827" pageHeight="1169" math="0" shadow="0">
      <root>
        <mxCell id="0" />
        <mxCell id="1" parent="0" />
        <mxCell id="-LH7fcYnhYMUPDVRSZud-9" style="edgeStyle=orthogonalEdgeStyle;rounded=0;orthogonalLoop=1;jettySize=auto;html=1;jumpStyle=none;curved=0;shape=link;fillColor=#d5e8d4;strokeColor=#82b366;" parent="1" source="-LH7fcYnhYMUPDVRSZud-1" target="-LH7fcYnhYMUPDVRSZud-2" edge="1">
          <mxGeometry relative="1" as="geometry">
            <Array as="points">
              <mxPoint x="109" y="440" />
              <mxPoint x="109" y="440" />
            </Array>
          </mxGeometry>
        </mxCell>
        <mxCell id="-LH7fcYnhYMUPDVRSZud-10" value="1. Send Events" style="edgeLabel;html=1;align=center;verticalAlign=middle;resizable=0;points=[];fontFamily=Helvetica;fontSize=11;fontColor=default;labelBackgroundColor=default;" parent="-LH7fcYnhYMUPDVRSZud-9" vertex="1" connectable="0">
          <mxGeometry x="-0.12" y="5" relative="1" as="geometry">
            <mxPoint as="offset" />
          </mxGeometry>
        </mxCell>
        <mxCell id="-LH7fcYnhYMUPDVRSZud-1" value="Windows 10 client&lt;div&gt;wazuh Agent&lt;/div&gt;" style="fontColor=#0066CC;verticalAlign=top;verticalLabelPosition=bottom;labelPosition=center;align=center;html=1;outlineConnect=0;fillColor=#CCCCCC;strokeColor=#6881B3;gradientColor=none;gradientDirection=north;strokeWidth=2;shape=mxgraph.networks.pc;" parent="1" vertex="1">
          <mxGeometry x="63" y="540" width="100" height="105" as="geometry" />
        </mxCell>
        <mxCell id="-LH7fcYnhYMUPDVRSZud-11" style="edgeStyle=orthogonalEdgeStyle;shape=link;rounded=0;jumpStyle=none;orthogonalLoop=1;jettySize=auto;html=1;entryX=0.5;entryY=1;entryDx=0;entryDy=0;strokeColor=default;align=center;verticalAlign=middle;fontFamily=Helvetica;fontSize=11;fontColor=default;labelBackgroundColor=default;endArrow=classic;" parent="1" source="-LH7fcYnhYMUPDVRSZud-2" target="-LH7fcYnhYMUPDVRSZud-4" edge="1">
          <mxGeometry relative="1" as="geometry" />
        </mxCell>
        <mxCell id="-LH7fcYnhYMUPDVRSZud-2" value="Router&lt;div&gt;&lt;br&gt;&lt;/div&gt;" style="image;html=1;image=img/lib/clip_art/networking/Router_Icon_128x128.png" parent="1" vertex="1">
          <mxGeometry x="81.5" y="350" width="80" height="80" as="geometry" />
        </mxCell>
        <mxCell id="-LH7fcYnhYMUPDVRSZud-3" value="Wazuh Manager" style="image;aspect=fixed;perimeter=ellipsePerimeter;html=1;align=center;shadow=0;dashed=0;spacingTop=3;image=img/lib/active_directory/internet_cloud.svg;" parent="1" vertex="1">
          <mxGeometry x="-141" y="190" width="80" height="50.4" as="geometry" />
        </mxCell>
        <mxCell id="-LH7fcYnhYMUPDVRSZud-17" style="edgeStyle=orthogonalEdgeStyle;shape=link;rounded=0;jumpStyle=none;orthogonalLoop=1;jettySize=auto;html=1;entryX=1;entryY=0.5;entryDx=0;entryDy=0;strokeColor=default;align=center;verticalAlign=middle;fontFamily=Helvetica;fontSize=11;fontColor=default;labelBackgroundColor=default;endArrow=classic;" parent="1" source="-LH7fcYnhYMUPDVRSZud-4" target="-LH7fcYnhYMUPDVRSZud-3" edge="1">
          <mxGeometry relative="1" as="geometry" />
        </mxCell>
        <mxCell id="-LH7fcYnhYMUPDVRSZud-18" value="2. Receive Events" style="edgeLabel;html=1;align=center;verticalAlign=middle;resizable=0;points=[];fontFamily=Helvetica;fontSize=11;fontColor=default;labelBackgroundColor=default;" parent="-LH7fcYnhYMUPDVRSZud-17" vertex="1" connectable="0">
          <mxGeometry x="0.345" y="-1" relative="1" as="geometry">
            <mxPoint as="offset" />
          </mxGeometry>
        </mxCell>
        <mxCell id="-LH7fcYnhYMUPDVRSZud-24" style="edgeStyle=orthogonalEdgeStyle;shape=link;rounded=0;jumpStyle=none;orthogonalLoop=1;jettySize=auto;html=1;entryX=0.5;entryY=1;entryDx=0;entryDy=0;strokeColor=#82b366;align=center;verticalAlign=middle;fontFamily=Helvetica;fontSize=11;fontColor=default;labelBackgroundColor=default;endArrow=classic;fillColor=#d5e8d4;" parent="1" source="-LH7fcYnhYMUPDVRSZud-4" edge="1">
          <mxGeometry relative="1" as="geometry">
            <mxPoint x="125.5" y="67.25" as="targetPoint" />
          </mxGeometry>
        </mxCell>
        <mxCell id="-LH7fcYnhYMUPDVRSZud-25" value="4. Enrich IOCs" style="edgeLabel;html=1;align=center;verticalAlign=middle;resizable=0;points=[];fontFamily=Helvetica;fontSize=11;fontColor=default;labelBackgroundColor=default;" parent="-LH7fcYnhYMUPDVRSZud-24" vertex="1" connectable="0">
          <mxGeometry x="-0.1914" relative="1" as="geometry">
            <mxPoint y="7" as="offset" />
          </mxGeometry>
        </mxCell>
        <mxCell id="-LH7fcYnhYMUPDVRSZud-32" style="shape=link;rounded=0;jumpStyle=none;orthogonalLoop=1;jettySize=auto;html=1;strokeColor=#b85450;align=center;verticalAlign=middle;fontFamily=Helvetica;fontSize=11;fontColor=default;labelBackgroundColor=default;endArrow=classic;width=11;fillColor=#f8cecc;" parent="1" edge="1">
          <mxGeometry relative="1" as="geometry">
            <mxPoint x="168.99993001310304" y="260.0000000000001" as="sourcePoint" />
            <mxPoint x="359" y="370" as="targetPoint" />
          </mxGeometry>
        </mxCell>
        <mxCell id="-LH7fcYnhYMUPDVRSZud-34" value="Text" style="edgeLabel;html=1;align=center;verticalAlign=middle;resizable=0;points=[];fontFamily=Helvetica;fontSize=11;fontColor=default;labelBackgroundColor=default;" parent="-LH7fcYnhYMUPDVRSZud-32" vertex="1" connectable="0">
          <mxGeometry x="-0.0765" y="-3" relative="1" as="geometry">
            <mxPoint x="1" as="offset" />
          </mxGeometry>
        </mxCell>
        <mxCell id="-LH7fcYnhYMUPDVRSZud-35" value="7. Send &amp;amp; Receive Email" style="edgeLabel;html=1;align=center;verticalAlign=middle;resizable=0;points=[];fontFamily=Helvetica;fontSize=11;fontColor=default;labelBackgroundColor=default;" parent="-LH7fcYnhYMUPDVRSZud-32" vertex="1" connectable="0">
          <mxGeometry x="-0.0249" y="1" relative="1" as="geometry">
            <mxPoint as="offset" />
          </mxGeometry>
        </mxCell>
        <mxCell id="-LH7fcYnhYMUPDVRSZud-38" style="shape=link;rounded=0;jumpStyle=none;orthogonalLoop=1;jettySize=auto;html=1;entryX=0;entryY=1;entryDx=0;entryDy=0;strokeColor=#d79b00;align=center;verticalAlign=middle;fontFamily=Helvetica;fontSize=11;fontColor=default;labelBackgroundColor=default;endArrow=classic;fillColor=#ffe6cc;" parent="1" source="-LH7fcYnhYMUPDVRSZud-4" edge="1">
          <mxGeometry relative="1" as="geometry">
            <mxPoint x="98.80659179089889" y="60.21819969754961" as="targetPoint" />
            <Array as="points">
              <mxPoint x="69" y="200" />
            </Array>
          </mxGeometry>
        </mxCell>
        <mxCell id="-LH7fcYnhYMUPDVRSZud-4" value="Internet" style="image;aspect=fixed;perimeter=ellipsePerimeter;html=1;align=center;shadow=0;dashed=0;spacingTop=3;image=img/lib/active_directory/internet_cloud.svg;" parent="1" vertex="1">
          <mxGeometry x="89" y="230" width="92.5" height="58.28" as="geometry" />
        </mxCell>
        <mxCell id="-LH7fcYnhYMUPDVRSZud-5" value="TheHive" style="image;aspect=fixed;perimeter=ellipsePerimeter;html=1;align=center;shadow=0;dashed=0;spacingTop=3;image=img/lib/active_directory/internet_cloud.svg;" parent="1" vertex="1">
          <mxGeometry x="379" y="188.43" width="85" height="53.55" as="geometry" />
        </mxCell>
        <mxCell id="-LH7fcYnhYMUPDVRSZud-22" style="shape=link;rounded=0;jumpStyle=none;orthogonalLoop=1;jettySize=auto;html=1;strokeColor=#6c8ebf;align=center;verticalAlign=middle;fontFamily=Helvetica;fontSize=11;fontColor=default;labelBackgroundColor=default;endArrow=classic;fillColor=#dae8fc;" parent="1" edge="1">
          <mxGeometry relative="1" as="geometry">
            <mxPoint x="100.38538284023707" y="61.169182322131064" as="sourcePoint" />
            <mxPoint x="-84.13376666563545" y="189.68024463205188" as="targetPoint" />
          </mxGeometry>
        </mxCell>
        <mxCell id="-LH7fcYnhYMUPDVRSZud-26" value="3. Send Alerts" style="edgeLabel;html=1;align=center;verticalAlign=middle;resizable=0;points=[];fontFamily=Helvetica;fontSize=11;fontColor=default;labelBackgroundColor=default;" parent="-LH7fcYnhYMUPDVRSZud-22" vertex="1" connectable="0">
          <mxGeometry x="-0.026" y="-1" relative="1" as="geometry">
            <mxPoint as="offset" />
          </mxGeometry>
        </mxCell>
        <mxCell id="-LH7fcYnhYMUPDVRSZud-28" style="shape=link;rounded=0;jumpStyle=none;orthogonalLoop=1;jettySize=auto;html=1;strokeColor=#6c8ebf;align=center;verticalAlign=middle;fontFamily=Helvetica;fontSize=11;fontColor=default;labelBackgroundColor=default;endArrow=classic;fillColor=#dae8fc;" parent="1" target="-LH7fcYnhYMUPDVRSZud-5" edge="1">
          <mxGeometry relative="1" as="geometry">
            <mxPoint x="153.09860351425232" y="59.619645218486994" as="sourcePoint" />
          </mxGeometry>
        </mxCell>
        <mxCell id="-LH7fcYnhYMUPDVRSZud-29" value="5. Send Alerts" style="edgeLabel;html=1;align=center;verticalAlign=middle;resizable=0;points=[];fontFamily=Helvetica;fontSize=11;fontColor=default;labelBackgroundColor=default;" parent="-LH7fcYnhYMUPDVRSZud-28" vertex="1" connectable="0">
          <mxGeometry x="0.1517" relative="1" as="geometry">
            <mxPoint as="offset" />
          </mxGeometry>
        </mxCell>
        <mxCell id="-LH7fcYnhYMUPDVRSZud-40" style="shape=link;rounded=0;jumpStyle=none;orthogonalLoop=1;jettySize=auto;html=1;entryX=0.25;entryY=0;entryDx=0;entryDy=0;strokeColor=#d79b00;align=center;verticalAlign=middle;fontFamily=Helvetica;fontSize=11;fontColor=default;labelBackgroundColor=default;endArrow=classic;fillColor=#ffe6cc;" parent="1" target="-LH7fcYnhYMUPDVRSZud-3" edge="1">
          <mxGeometry relative="1" as="geometry">
            <mxPoint x="88.90069052534591" y="48.77177789487325" as="sourcePoint" />
            <Array as="points">
              <mxPoint x="-131" y="80" />
            </Array>
          </mxGeometry>
        </mxCell>
        <mxCell id="-LH7fcYnhYMUPDVRSZud-41" value="8. Send Response Action" style="edgeLabel;html=1;align=center;verticalAlign=middle;resizable=0;points=[];fontFamily=Helvetica;fontSize=11;fontColor=default;labelBackgroundColor=default;" parent="-LH7fcYnhYMUPDVRSZud-40" vertex="1" connectable="0">
          <mxGeometry x="0.4915" y="-1" relative="1" as="geometry">
            <mxPoint as="offset" />
          </mxGeometry>
        </mxCell>
        <mxCell id="-LH7fcYnhYMUPDVRSZud-6" value="" style="image;aspect=fixed;perimeter=ellipsePerimeter;html=1;align=center;shadow=0;dashed=0;spacingTop=3;image=img/lib/active_directory/internet_cloud.svg;" parent="1" vertex="1">
          <mxGeometry x="84" y="32.75" width="75" height="47.25" as="geometry" />
        </mxCell>
        <mxCell id="-LH7fcYnhYMUPDVRSZud-30" style="shape=link;rounded=0;jumpStyle=none;orthogonalLoop=1;jettySize=auto;html=1;strokeColor=#b85450;align=center;verticalAlign=middle;fontFamily=Helvetica;fontSize=11;fontColor=default;labelBackgroundColor=default;endArrow=classic;entryX=0.75;entryY=0;entryDx=0;entryDy=0;exitX=0.75;exitY=1;exitDx=0;exitDy=0;width=9;fillColor=#f8cecc;" parent="1" edge="1">
          <mxGeometry relative="1" as="geometry">
            <mxPoint x="139.00306767012302" y="63.234475356268305" as="sourcePoint" />
            <mxPoint x="162.80313191889638" y="240.40237755776838" as="targetPoint" />
            <Array as="points">
              <mxPoint x="245.91999999999996" y="198.42" />
            </Array>
          </mxGeometry>
        </mxCell>
        <mxCell id="-LH7fcYnhYMUPDVRSZud-31" value="6. Send Email" style="edgeLabel;html=1;align=center;verticalAlign=middle;resizable=0;points=[];fontFamily=Helvetica;fontSize=11;fontColor=default;labelBackgroundColor=default;" parent="-LH7fcYnhYMUPDVRSZud-30" vertex="1" connectable="0">
          <mxGeometry x="0.4511" y="3" relative="1" as="geometry">
            <mxPoint x="10" y="-30" as="offset" />
          </mxGeometry>
        </mxCell>
        <mxCell id="-LH7fcYnhYMUPDVRSZud-7" value="Shuffle" style="text;html=1;align=center;verticalAlign=middle;resizable=0;points=[];autosize=1;strokeColor=none;fillColor=none;" parent="1" vertex="1">
          <mxGeometry x="91.5" y="80" width="60" height="30" as="geometry" />
        </mxCell>
        <mxCell id="-LH7fcYnhYMUPDVRSZud-36" style="shape=link;rounded=0;jumpStyle=none;orthogonalLoop=1;jettySize=auto;html=1;entryX=1;entryY=1;entryDx=0;entryDy=0;strokeColor=#d79b00;align=center;verticalAlign=middle;fontFamily=Helvetica;fontSize=11;fontColor=default;labelBackgroundColor=default;endArrow=classic;fillColor=#ffe6cc;" parent="1" edge="1">
          <mxGeometry relative="1" as="geometry">
            <mxPoint x="357" y="400" as="sourcePoint" />
            <mxPoint x="161.49682611596108" y="286.7015806943759" as="targetPoint" />
            <Array as="points">
              <mxPoint x="269" y="420" />
            </Array>
          </mxGeometry>
        </mxCell>
        <mxCell id="-LH7fcYnhYMUPDVRSZud-37" value="8. Send Response Action" style="edgeLabel;html=1;align=center;verticalAlign=middle;resizable=0;points=[];fontFamily=Helvetica;fontSize=11;fontColor=default;labelBackgroundColor=default;" parent="-LH7fcYnhYMUPDVRSZud-36" vertex="1" connectable="0">
          <mxGeometry x="-0.1354" relative="1" as="geometry">
            <mxPoint as="offset" />
          </mxGeometry>
        </mxCell>
        <mxCell id="-LH7fcYnhYMUPDVRSZud-8" value="SOC Analyst" style="fontColor=#0066CC;verticalAlign=top;verticalLabelPosition=bottom;labelPosition=center;align=center;html=1;outlineConnect=0;fillColor=#CCCCCC;strokeColor=#6881B3;gradientColor=none;gradientDirection=north;strokeWidth=2;shape=mxgraph.networks.pc;" parent="1" vertex="1">
          <mxGeometry x="364" y="370" width="100" height="70" as="geometry" />
        </mxCell>
        <mxCell id="-LH7fcYnhYMUPDVRSZud-39" style="edgeStyle=orthogonalEdgeStyle;shape=connector;rounded=0;jumpStyle=none;orthogonalLoop=1;jettySize=auto;html=1;exitX=0;exitY=1;exitDx=0;exitDy=0;entryX=0;entryY=0.5;entryDx=0;entryDy=0;strokeColor=default;align=center;verticalAlign=middle;fontFamily=Helvetica;fontSize=11;fontColor=default;labelBackgroundColor=default;endArrow=classic;" parent="1" edge="1">
          <mxGeometry relative="1" as="geometry">
            <mxPoint x="98.80659179089889" y="60.21819969754961" as="sourcePoint" />
            <mxPoint x="88.00000000000273" y="43.625" as="targetPoint" />
          </mxGeometry>
        </mxCell>
        <mxCell id="-LH7fcYnhYMUPDVRSZud-45" style="edgeStyle=orthogonalEdgeStyle;shape=connector;rounded=0;jumpStyle=none;orthogonalLoop=1;jettySize=auto;html=1;strokeColor=default;align=center;verticalAlign=middle;fontFamily=Helvetica;fontSize=11;fontColor=default;labelBackgroundColor=default;endArrow=classic;" parent="1" source="-LH7fcYnhYMUPDVRSZud-44" edge="1">
          <mxGeometry relative="1" as="geometry">
            <mxPoint x="-70" y="743" as="targetPoint" />
          </mxGeometry>
        </mxCell>
        <mxCell id="-LH7fcYnhYMUPDVRSZud-44" value="windows 10&lt;div&gt;Send Events&lt;/div&gt;" style="text;html=1;align=center;verticalAlign=middle;resizable=0;points=[];autosize=1;strokeColor=none;fillColor=none;fontFamily=Helvetica;fontSize=11;fontColor=default;labelBackgroundColor=default;" parent="1" vertex="1">
          <mxGeometry x="-275" y="723" width="90" height="40" as="geometry" />
        </mxCell>
        <mxCell id="-LH7fcYnhYMUPDVRSZud-47" style="edgeStyle=orthogonalEdgeStyle;shape=connector;rounded=0;jumpStyle=none;orthogonalLoop=1;jettySize=auto;html=1;strokeColor=default;align=center;verticalAlign=middle;fontFamily=Helvetica;fontSize=11;fontColor=default;labelBackgroundColor=default;endArrow=classic;" parent="1" source="-LH7fcYnhYMUPDVRSZud-46" edge="1">
          <mxGeometry relative="1" as="geometry">
            <mxPoint x="230" y="755" as="targetPoint" />
          </mxGeometry>
        </mxCell>
        <mxCell id="-LH7fcYnhYMUPDVRSZud-46" value="wazuh Manager&lt;div&gt;Trigger alers &amp;amp; Perform actions&lt;/div&gt;&lt;div&gt;&lt;div&gt;&lt;br&gt;&lt;/div&gt;&lt;/div&gt;" style="text;html=1;align=center;verticalAlign=middle;resizable=0;points=[];autosize=1;strokeColor=none;fillColor=none;fontFamily=Helvetica;fontSize=11;fontColor=default;labelBackgroundColor=default;" parent="1" vertex="1">
          <mxGeometry x="-70" y="730" width="180" height="50" as="geometry" />
        </mxCell>
        <mxCell id="-LH7fcYnhYMUPDVRSZud-49" style="edgeStyle=orthogonalEdgeStyle;shape=connector;rounded=0;jumpStyle=none;orthogonalLoop=1;jettySize=auto;html=1;strokeColor=default;align=center;verticalAlign=middle;fontFamily=Helvetica;fontSize=11;fontColor=default;labelBackgroundColor=default;endArrow=classic;" parent="1" source="-LH7fcYnhYMUPDVRSZud-48" edge="1">
          <mxGeometry relative="1" as="geometry">
            <mxPoint x="270" y="680" as="targetPoint" />
          </mxGeometry>
        </mxCell>
        <mxCell id="-LH7fcYnhYMUPDVRSZud-51" style="edgeStyle=orthogonalEdgeStyle;shape=connector;rounded=0;jumpStyle=none;orthogonalLoop=1;jettySize=auto;html=1;strokeColor=default;align=center;verticalAlign=middle;fontFamily=Helvetica;fontSize=11;fontColor=default;labelBackgroundColor=default;endArrow=classic;" parent="1" source="-LH7fcYnhYMUPDVRSZud-48" edge="1">
          <mxGeometry relative="1" as="geometry">
            <mxPoint x="270" y="840" as="targetPoint" />
          </mxGeometry>
        </mxCell>
        <mxCell id="-LH7fcYnhYMUPDVRSZud-53" style="edgeStyle=orthogonalEdgeStyle;shape=connector;rounded=0;jumpStyle=none;orthogonalLoop=1;jettySize=auto;html=1;strokeColor=default;align=center;verticalAlign=middle;fontFamily=Helvetica;fontSize=11;fontColor=default;labelBackgroundColor=default;endArrow=classic;" parent="1" source="-LH7fcYnhYMUPDVRSZud-48" edge="1">
          <mxGeometry relative="1" as="geometry">
            <mxPoint x="530" y="753" as="targetPoint" />
          </mxGeometry>
        </mxCell>
        <mxCell id="-LH7fcYnhYMUPDVRSZud-48" value="shuffle&lt;div&gt;Receive Wazuh Alerts &amp;amp; Send response actiond&lt;/div&gt;" style="text;html=1;align=center;verticalAlign=middle;resizable=0;points=[];autosize=1;strokeColor=none;fillColor=none;fontFamily=Helvetica;fontSize=11;fontColor=default;labelBackgroundColor=default;" parent="1" vertex="1">
          <mxGeometry x="140" y="733" width="260" height="40" as="geometry" />
        </mxCell>
        <mxCell id="-LH7fcYnhYMUPDVRSZud-50" value="OSINT&lt;div&gt;Enrich IOCS&lt;/div&gt;" style="text;html=1;align=center;verticalAlign=middle;resizable=0;points=[];autosize=1;strokeColor=none;fillColor=none;fontFamily=Helvetica;fontSize=11;fontColor=default;labelBackgroundColor=default;" parent="1" vertex="1">
          <mxGeometry x="230" y="630" width="80" height="40" as="geometry" />
        </mxCell>
        <mxCell id="-LH7fcYnhYMUPDVRSZud-52" value="TheHive&lt;div&gt;Create alert in case management&lt;/div&gt;" style="text;html=1;align=center;verticalAlign=middle;resizable=0;points=[];autosize=1;strokeColor=none;fillColor=none;fontFamily=Helvetica;fontSize=11;fontColor=default;labelBackgroundColor=default;" parent="1" vertex="1">
          <mxGeometry x="175" y="833" width="190" height="40" as="geometry" />
        </mxCell>
        <mxCell id="-LH7fcYnhYMUPDVRSZud-54" value="Email#&lt;div&gt;Send email &amp;amp; response actiions&lt;/div&gt;" style="text;html=1;align=center;verticalAlign=middle;resizable=0;points=[];autosize=1;strokeColor=none;fillColor=none;fontFamily=Helvetica;fontSize=11;fontColor=default;labelBackgroundColor=default;" parent="1" vertex="1">
          <mxGeometry x="480" y="733" width="180" height="40" as="geometry" />
        </mxCell>
      </root>
    </mxGraphModel>
  </diagram>
</mxfile>
